<svg xmlns="http://www.w3.org/2000/svg" viewBox="0 0 120 80"><rect width="120" height="80" fill="#ffffff"/><circle cx="60" cy="40" r="17" fill="#cd2e3a"/><path d="M43 40a17 17 0 0 0 34 0a17 17 0 0 0-34 0" fill="#0047a0" transform="rotate(180 60 40)"/><path d="M43 40a17 17 0 0 1 34 0a8.5 8.5 0 0 1-17 0a8.5 8.5 0 0 0-17 0" fill="#cd2e3a"/><path d="M43 40a17 17 0 0 0 34 0a8.5 8.5 0 0 0-17 0a8.5 8.5 0 0 1-17 0" fill="#0047a0"/><g transform="translate(22 19) rotate(-35)" stroke="#111" stroke-width="3"><line x1="-10" y1="-6" x2="10" y2="-6"/><line x1="-10" y1="0" x2="10" y2="0"/><line x1="-10" y1="6" x2="10" y2="6"/></g><g transform="translate(96 19) rotate(35)" stroke="#111" stroke-width="3"><line x1="-10" y1="-6" x2="10" y2="-6"/><line x1="-10" y1="0" x2="10" y2="0"/><line x1="-10" y1="6" x2="10" y2="6"/></g><g transform="translate(22 62) rotate(35)" stroke="#111" stroke-width="3"><line x1="-10" y1="-6" x2="10" y2="-6"/><line x1="-10" y1="0" x2="10" y2="0"/><line x1="-10" y1="6" x2="10" y2="6"/></g><g transform="translate(96 62) rotate(-35)" stroke="#111" stroke-width="3"><line x1="-10" y1="-6" x2="10" y2="-6"/><line x1="-10" y1="0" x2="10" y2="0"/><line x1="-10" y1="6" x2="10" y2="6"/></g></svg>